<svg width="260" height="308" viewBox="0 0 260 308" fill="none" xmlns="http://www.w3.org/2000/svg">
<path d="M244.723 118.968C244.269 118.845 243.804 118.767 243.34 118.689C243.337 118.583 243.333 118.481 243.33 118.378C243.176 113.693 243.019 108.85 243.019 103.997C243.019 89.0497 240.006 75.1009 234.48 62.5665C234.808 61.994 235.047 61.3635 235.047 60.6546C235.047 58.6985 233.595 57.1513 231.72 56.848C214.352 23.5216 178.342 1.5438 133.503 0.102239V0L129.998 0.0170401L129.059 0L126.497 0.0408956V0.102239C81.6648 1.54721 45.682 23.583 28.4369 56.9707C26.8726 57.4887 25.7318 58.9132 25.7318 60.6512C25.7318 61.1352 25.8479 61.5884 26.0084 62.0144C20.4069 74.5897 17.3466 88.5998 17.3466 103.629C17.3466 108.669 17.1451 113.723 16.9436 118.627C16.38 118.712 15.8233 118.815 15.2768 118.965C1.45062 122.747 -3.92203 145.55 3.04227 170.874C8.18951 189.587 18.6548 203.986 29.4923 208.365C30.558 215.386 31.5382 222.593 32.3511 229.757C32.6346 232.262 33.1982 234.688 33.9086 237.067C33.7105 237.534 33.6012 238.049 33.6012 238.587C33.6012 240.063 34.4517 241.3 35.6574 241.974C43.4004 260.282 62.1996 274.479 75.4417 284.458C75.4998 284.502 75.5544 284.543 75.6125 284.587C75.9814 286.373 77.491 287.743 79.3935 287.743C79.4994 287.743 79.5882 287.692 79.6906 287.682C82.143 289.56 84.2982 291.27 85.9206 292.763C97.5881 303.471 107.691 307.312 126.501 307.908V308L129.988 307.986L130.944 308L133.506 307.969V307.908C152.316 307.308 162.419 303.467 174.086 292.763C175.709 291.274 177.86 289.566 180.309 287.689C180.405 287.695 180.487 287.743 180.586 287.743C182.478 287.743 183.981 286.387 184.357 284.615C184.429 284.56 184.493 284.512 184.565 284.458C197.729 274.541 216.381 260.463 224.216 242.322C225.91 241.882 227.181 240.414 227.181 238.587C227.181 237.694 226.829 236.91 226.327 236.253C226.918 234.133 227.403 231.979 227.656 229.757C228.469 222.593 229.449 215.386 230.511 208.365C241.345 203.983 251.811 189.587 256.958 170.871C263.922 145.553 258.549 122.751 244.723 118.968ZM7.97774 169.525C1.98004 147.717 5.94207 126.82 16.6293 123.896C16.6635 123.886 16.7011 123.892 16.7352 123.882C16.3356 134.805 16.2775 145.093 18.7572 154.097C19.1124 155.379 19.5018 156.905 19.9083 158.551C19.4267 159.202 19.0885 159.966 19.0885 160.835C19.0885 162.365 19.9902 163.656 21.2711 164.304C23.498 174.092 26.1519 187.495 28.5155 202.153C20.2737 197.027 12.1106 184.54 7.97774 169.525ZM222.563 229.188C222.409 230.544 222.174 231.88 221.87 233.202L221.361 232.504L220.258 233.305L221.398 234.865C221.361 234.998 221.323 235.131 221.282 235.261C220.124 235.942 219.308 237.149 219.308 238.59C219.308 238.645 219.335 238.693 219.339 238.744L216.531 239.357L216.825 240.69L219.571 240.09C212.375 256.966 194.518 270.55 181.795 280.133C181.495 280.034 181.18 279.966 180.852 279.942L180.586 277.441L179.23 277.584L179.5 280.106C177.864 280.583 176.644 282.028 176.644 283.817C176.644 283.889 176.682 283.95 176.685 284.022C174.342 285.828 172.259 287.498 170.616 289.004C159.389 299.306 150.109 302.547 130.903 302.861L130.002 302.874L129.097 302.864C109.891 302.551 100.611 299.313 89.384 289.008C87.7616 287.518 85.7089 285.876 83.4068 284.097H83.417L83.1369 282.761L83.1096 282.764C82.6417 281.122 81.1901 279.895 79.3901 279.895C78.9666 279.895 78.5772 280.011 78.1946 280.133C65.6493 270.68 48.0866 257.341 40.7056 240.788C40.8627 240.564 41.0539 240.359 41.1598 240.1L43.1648 240.547L43.4619 239.214L41.4297 238.761C41.4297 238.703 41.4638 238.652 41.4638 238.594C41.4638 236.805 40.2445 235.36 38.605 234.886C38.0858 233.018 37.6555 231.127 37.4369 229.188C34.619 204.381 29.8544 178.917 26.227 162.995C26.654 162.368 26.9614 161.653 26.9614 160.838C26.9614 159.366 26.1177 158.132 24.9155 157.457C24.4851 155.706 24.0684 154.097 23.6995 152.744C21.0696 143.202 21.5443 131.591 22.0464 119.302C22.2547 114.204 22.4699 108.935 22.4699 103.636C22.4699 89.6495 25.257 76.5766 30.3906 64.8123L31.487 64.4954L31.3845 64.1444C32.1838 63.7491 32.8293 63.1084 33.205 62.3041L35.5617 63.4696L36.1697 62.2496L33.5363 60.9477C33.5431 60.8455 33.5978 60.7569 33.5978 60.6546C33.5978 60.1946 33.4817 59.7652 33.3348 59.3562L36.1697 57.7443L35.4934 56.5583L34.076 57.3626C51.2357 26.1151 86.0402 5.79692 129.097 5.15622L129.677 5.13918L130.903 5.15622C173.352 5.78669 207.825 25.4812 225.347 55.921L225.005 55.737L224.36 56.94L226.546 58.1123C226.826 58.6303 227.109 59.1449 227.379 59.6663C227.294 59.9901 227.178 60.3036 227.178 60.6546C227.178 61.0261 227.294 61.3635 227.389 61.7043L225.145 62.7948L225.743 64.0183L227.99 62.9277C228.349 63.4185 228.79 63.8274 229.336 64.1069L229.135 64.7578L229.937 65.0066C235.098 76.8185 237.899 89.9459 237.899 103.997C237.899 108.932 238.06 113.819 238.213 118.545C238.623 131.08 239.009 142.919 236.301 152.744C235.952 154.012 235.566 155.511 235.167 157.127C233.527 157.6 232.304 159.045 232.304 160.838C232.304 161.987 232.82 162.999 233.609 163.718C229.999 179.681 225.337 204.753 222.563 229.188ZM252.019 169.525C247.889 184.544 239.723 197.03 231.481 202.153C233.889 187.209 236.601 173.553 238.855 163.721C239.651 163.002 240.17 161.99 240.17 160.835C240.17 160.32 240.058 159.836 239.877 159.386C240.365 157.389 240.823 155.6 241.236 154.097C243.726 145.059 243.794 134.812 243.497 123.947C254.082 127.011 257.989 147.809 252.019 169.525Z" fill="white"/>
<path d="M130 151.153C129.02 151.153 128.152 151.545 127.466 152.138L126.093 151.02L125.229 152.077L126.612 153.205C126.294 153.77 126.065 154.391 126.065 155.082C126.065 157.25 127.831 159.008 130 159.008C132.176 159.008 133.938 157.25 133.938 155.082C133.938 152.915 132.176 151.153 130 151.153Z" fill="white"/>
<path d="M180.575 181.745C182.748 181.745 184.51 179.987 184.51 177.819C184.51 175.651 182.748 173.893 180.575 173.893C178.402 173.893 176.641 175.651 176.641 177.819C176.641 179.987 178.402 181.745 180.575 181.745Z" fill="white"/>
<path d="M172.602 117.071C172.602 117.769 172.834 118.389 173.151 118.955L171.854 120.015L172.718 121.072L174.005 120.018C174.695 120.608 175.559 121 176.536 121C178.712 121 180.471 119.241 180.471 117.074C180.471 114.903 178.712 113.148 176.536 113.148C174.364 113.141 172.602 114.9 172.602 117.071Z" fill="white"/>
<path d="M83.3195 120.997C85.4926 120.997 87.2542 119.239 87.2542 117.071C87.2542 114.902 85.4926 113.145 83.3195 113.145C81.1464 113.145 79.3848 114.902 79.3848 117.071C79.3848 119.239 81.1464 120.997 83.3195 120.997Z" fill="white"/>
<path d="M130.079 217.042C132.254 217.042 134.017 215.282 134.017 213.112C134.017 210.942 132.254 209.183 130.079 209.183C127.904 209.183 126.141 210.942 126.141 213.112C126.141 215.282 127.904 217.042 130.079 217.042Z" fill="white"/>
<path d="M130.083 269.726C128.826 269.726 127.757 270.349 127.036 271.263L125.837 270.625L125.195 271.828L126.387 272.462C126.261 272.844 126.145 273.232 126.145 273.655C126.145 275.822 127.907 277.581 130.083 277.581C132.259 277.581 134.014 275.822 134.014 273.655C134.014 271.481 132.259 269.726 130.083 269.726Z" fill="white"/>
<path d="M176.641 244.845C174.465 244.845 172.706 246.603 172.706 248.774C172.706 249.231 172.822 249.657 172.969 250.066L171.951 250.608L172.593 251.811L173.652 251.248C174.359 252.1 175.384 252.669 176.576 252.69L176.702 253.869L178.058 253.726L177.922 252.444C179.459 251.909 180.575 250.488 180.575 248.774C180.579 246.603 178.82 244.845 176.641 244.845Z" fill="white"/>
<path d="M83.3248 252.703C85.4998 252.703 87.263 250.944 87.263 248.774C87.263 246.604 85.4998 244.844 83.3248 244.844C81.1499 244.844 79.3867 246.604 79.3867 248.774C79.3867 250.944 81.1499 252.703 83.3248 252.703Z" fill="white"/>
<path d="M213.691 120.997C215.864 120.997 217.625 119.239 217.625 117.071C217.625 114.902 215.864 113.145 213.691 113.145C211.517 113.145 209.756 114.902 209.756 117.071C209.756 119.239 211.517 120.997 213.691 120.997Z" fill="white"/>
<path d="M45.9894 120.997C48.1625 120.997 49.9241 119.239 49.9241 117.071C49.9241 114.902 48.1625 113.145 45.9894 113.145C43.8163 113.145 42.0547 114.902 42.0547 117.071C42.0547 119.239 43.8163 120.997 45.9894 120.997Z" fill="white"/>
<path d="M151.242 198.622C151.242 198.1 151.13 197.606 150.945 197.153L151.997 196.495L151.27 195.34L150.201 196.008C149.48 195.214 148.466 194.696 147.308 194.696C147.035 194.696 146.799 194.798 146.543 194.849L145.747 192.845L144.476 193.346L145.272 195.343C144.155 196.039 143.373 197.214 143.373 198.622C143.373 200.789 145.135 202.551 147.308 202.551C149.48 202.551 151.242 200.789 151.242 198.622Z" fill="white"/>
<path d="M116.649 199.304H119.986V197.94H116.649C116.447 196.83 115.809 195.909 114.88 195.337L115.645 193.391L114.374 192.893L113.606 194.846C113.353 194.795 113.117 194.696 112.851 194.696C110.675 194.696 108.916 196.455 108.916 198.622C108.916 200.79 110.675 202.551 112.851 202.551C114.784 202.551 116.314 201.134 116.649 199.304Z" fill="white"/>
<path d="M83.3195 34.0972C85.2493 34.0972 86.7828 32.6829 87.1141 30.8529H89.8022V29.4897H87.1141C86.7794 27.6596 85.2493 26.2453 83.3195 26.2453C81.1438 26.2453 79.3848 28.0038 79.3848 30.1713C79.3848 32.3387 81.1438 34.0972 83.3195 34.0972Z" fill="white"/>
<path d="M175.09 33.773L174.926 33.7253L173.994 37.0037L175.309 37.3752L176.241 34.0967L175.227 33.8105C175.667 33.9809 176.142 34.0967 176.648 34.0967C178.823 34.0967 180.582 32.3382 180.582 30.1708C180.582 27.9999 178.823 26.2448 176.648 26.2448C174.472 26.2448 172.713 28.0033 172.713 30.1708C172.709 31.7862 173.693 33.1698 175.09 33.773Z" fill="white"/>
<path d="M161.81 96.204C161.81 94.0332 160.051 92.2781 157.876 92.2781C155.942 92.2781 154.412 93.6924 154.077 95.5224H150.986V96.8856H154.077C154.412 98.7157 155.942 100.13 157.876 100.13C160.051 100.133 161.81 98.3715 161.81 96.204Z" fill="white"/>
<path d="M103.157 100.13C105.33 100.13 107.092 98.3723 107.092 96.204C107.092 94.0358 105.33 92.2781 103.157 92.2781C100.984 92.2781 99.2227 94.0358 99.2227 96.204C99.2227 98.3723 100.984 100.13 103.157 100.13Z" fill="white"/>
<path d="M115.505 142.395L114.641 143.45L117.286 145.607L118.15 144.551L115.505 142.395Z" fill="white"/>
<path d="M93.4774 126.21L96.123 128.366L96.9872 127.31L94.3415 125.154L93.4774 126.21Z" fill="white"/>
<path d="M101.407 132.683L102.271 131.627L99.6265 129.471L98.7621 130.527L101.407 132.683Z" fill="white"/>
<path d="M107.574 135.932L104.928 133.777L104.064 134.833L106.71 136.988L107.574 135.932Z" fill="white"/>
<path d="M110.216 138.088L109.352 139.144L111.997 141.3L112.861 140.244L110.216 138.088Z" fill="white"/>
<path d="M88.1798 121.908L90.8262 124.062L91.6899 123.006L89.0435 120.852L88.1798 121.908Z" fill="white"/>
<path d="M119.926 147.765L122.572 149.92L123.436 148.864L120.79 146.709L119.926 147.765Z" fill="white"/>
<path d="M153.353 135.132L150.711 137.292L151.577 138.346L154.219 136.186L153.353 135.132Z" fill="white"/>
<path d="M134.841 150.231L135.707 151.285L138.348 149.123L137.481 148.069L134.841 150.231Z" fill="white"/>
<path d="M143.644 144.817L142.779 143.761L140.134 145.917L140.999 146.973L143.644 144.817Z" fill="white"/>
<path d="M167.42 125.387L170.062 123.227L169.197 122.173L166.554 124.332L167.42 125.387Z" fill="white"/>
<path d="M148.927 140.5L148.062 139.445L145.417 141.601L146.282 142.657L148.927 140.5Z" fill="white"/>
<path d="M161.282 128.644L162.146 129.7L164.791 127.544L163.927 126.488L161.282 128.644Z" fill="white"/>
<path d="M158.637 130.802L155.994 132.96L156.859 134.015L159.503 131.857L158.637 130.802Z" fill="white"/>
<path d="M152.082 164.26L148.969 162.859L148.407 164.102L151.521 165.503L152.082 164.26Z" fill="white"/>
<path d="M154.615 166.902L157.729 168.302L158.29 167.06L155.176 165.659L154.615 166.902Z" fill="white"/>
<path d="M145.855 161.462L142.74 160.062L142.179 161.305L145.293 162.705L145.855 161.462Z" fill="white"/>
<path d="M167.655 171.261L167.094 172.504L170.208 173.904L170.769 172.661L167.655 171.261Z" fill="white"/>
<path d="M139.063 159.905L139.623 158.662L136.508 157.264L135.948 158.507L139.063 159.905Z" fill="white"/>
<path d="M164.538 169.864L161.424 168.464L160.863 169.707L163.977 171.107L164.538 169.864Z" fill="white"/>
<path d="M176.993 175.459L173.879 174.058L173.317 175.301L176.431 176.702L176.993 175.459Z" fill="white"/>
<path d="M210.171 169.498L209.771 168.195L206.506 169.192L206.905 170.496L210.171 169.498Z" fill="white"/>
<path d="M213.433 168.487L216.699 167.49L216.3 166.187L213.033 167.184L213.433 168.487Z" fill="white"/>
<path d="M219.577 165.212L219.977 166.516L223.243 165.518L222.843 164.215L219.577 165.212Z" fill="white"/>
<path d="M226.106 163.217L226.506 164.52L229.772 163.523L229.372 162.219L226.106 163.217Z" fill="white"/>
<path d="M193.446 173.183L193.846 174.487L197.112 173.489L196.712 172.186L193.446 173.183Z" fill="white"/>
<path d="M190.174 174.195L186.908 175.192L187.308 176.496L190.574 175.499L190.174 174.195Z" fill="white"/>
<path d="M203.63 171.49L203.23 170.186L199.965 171.184L200.364 172.487L203.63 171.49Z" fill="white"/>
<path d="M218.47 127.809L220.031 130.84L221.246 130.217L219.685 127.186L218.47 127.809Z" fill="white"/>
<path d="M227.46 142.334L225.898 139.303L224.683 139.926L226.245 142.957L227.46 142.334Z" fill="white"/>
<path d="M221.591 133.871L223.152 136.902L224.367 136.279L222.806 133.248L221.591 133.871Z" fill="white"/>
<path d="M218.096 124.147L216.533 121.117L215.318 121.74L216.881 124.771L218.096 124.147Z" fill="white"/>
<path d="M227.839 145.995L229.4 149.026L230.616 148.403L229.054 145.372L227.839 145.995Z" fill="white"/>
<path d="M233.713 154.458L232.15 151.428L230.936 152.051L232.498 155.082L233.713 154.458Z" fill="white"/>
<path d="M186.789 116.385H183.373V117.748H186.789V116.385Z" fill="white"/>
<path d="M193.617 116.385H190.201V117.748H193.617V116.385Z" fill="white"/>
<path d="M200.449 116.385H197.033V117.748H200.449V116.385Z" fill="white"/>
<path d="M207.281 116.385H203.865V117.748H207.281V116.385Z" fill="white"/>
<path d="M93.2374 173.148L90.1992 174.705L90.8236 175.918L93.8617 174.36L93.2374 173.148Z" fill="white"/>
<path d="M115.104 163.475L118.143 161.918L117.518 160.705L114.48 162.263L115.104 163.475Z" fill="white"/>
<path d="M105.382 166.921L102.344 168.479L102.968 169.691L106.006 168.134L105.382 166.921Z" fill="white"/>
<path d="M99.2936 170.051L96.2559 171.609L96.8804 172.821L99.9182 171.264L99.2936 170.051Z" fill="white"/>
<path d="M112.083 165.035L111.459 163.823L108.421 165.38L109.045 166.593L112.083 165.035Z" fill="white"/>
<path d="M120.561 159.133L121.186 160.345L124.224 158.788L123.599 157.575L120.561 159.133Z" fill="white"/>
<path d="M35.9895 165.056L39.2852 165.951L39.6441 164.636L36.3484 163.741L35.9895 165.056Z" fill="white"/>
<path d="M62.3606 172.209L65.6562 173.105L66.0152 171.789L62.7195 170.894L62.3606 172.209Z" fill="white"/>
<path d="M75.5481 175.791L78.8438 176.686L79.2025 175.371L75.9069 174.476L75.5481 175.791Z" fill="white"/>
<path d="M72.6082 173.589L69.3125 172.694L68.9536 174.009L72.2493 174.904L72.6082 173.589Z" fill="white"/>
<path d="M59.4265 170.01L56.1309 169.114L55.772 170.43L59.0676 171.325L59.4265 170.01Z" fill="white"/>
<path d="M49.1711 168.633L52.4668 169.529L52.8257 168.213L49.53 167.318L49.1711 168.633Z" fill="white"/>
<path d="M46.2351 166.428L42.9395 165.533L42.5807 166.849L45.8763 167.744L46.2351 166.428Z" fill="white"/>
<path d="M29.3977 163.267L32.6934 164.163L33.0523 162.847L29.7566 161.952L29.3977 163.267Z" fill="white"/>
<path d="M31.5581 146.056L30.3477 145.424L28.7639 148.443L29.9743 149.075L31.5581 146.056Z" fill="white"/>
<path d="M31.9165 142.403L33.127 143.036L34.7107 140.016L33.5003 139.384L31.9165 142.403Z" fill="white"/>
<path d="M39.8481 127.3L38.2637 130.319L39.474 130.951L41.0585 127.932L39.8481 127.3Z" fill="white"/>
<path d="M25.5786 154.479L26.7891 155.111L28.3729 152.092L27.1624 151.46L25.5786 154.479Z" fill="white"/>
<path d="M43.0181 121.262L41.4336 124.281L42.6439 124.914L44.2284 121.894L43.0181 121.262Z" fill="white"/>
<path d="M37.8921 133.977L36.6816 133.345L35.0978 136.364L36.3083 136.996L37.8921 133.977Z" fill="white"/>
<path d="M56.2359 116.385H52.8203V117.748H56.2359V116.385Z" fill="white"/>
<path d="M69.898 116.385H66.4824V117.748H69.898V116.385Z" fill="white"/>
<path d="M63.0679 116.385H59.6523V117.748H63.0679V116.385Z" fill="white"/>
<path d="M76.73 116.385H73.3145V117.748H76.73V116.385Z" fill="white"/>
<path d="M174.425 180.854L171.531 182.665L172.257 183.82L175.151 182.009L174.425 180.854Z" fill="white"/>
<path d="M168.64 184.471L165.746 186.282L166.472 187.437L169.366 185.626L168.64 184.471Z" fill="white"/>
<path d="M157.782 192.885L157.055 191.731L154.162 193.544L154.889 194.698L157.782 192.885Z" fill="white"/>
<path d="M162.851 188.08L159.957 189.89L160.683 191.045L163.577 189.235L162.851 188.08Z" fill="white"/>
<path d="M107.847 193.927L105.135 191.856L104.305 192.939L107.017 195.009L107.847 193.927Z" fill="white"/>
<path d="M91.5633 181.51L89.0631 179.598C89.3432 179.056 89.5413 178.467 89.5413 177.819C89.5413 175.648 87.7823 173.893 85.6066 173.893C83.4309 173.893 81.6719 175.652 81.6719 177.819C81.6719 179.987 83.4343 181.748 85.6066 181.748C86.6313 181.748 87.5466 181.333 88.2468 180.692L90.7333 182.59L91.5633 181.51Z" fill="white"/>
<path d="M96.9939 185.642L94.2812 183.571L93.4511 184.654L96.1638 186.725L96.9939 185.642Z" fill="white"/>
<path d="M102.424 189.802L99.7109 187.731L98.8807 188.813L101.593 190.884L102.424 189.802Z" fill="white"/>
<path d="M126.346 209.081L123.734 206.885L122.854 207.927L125.465 210.124L126.346 209.081Z" fill="white"/>
<path d="M121.134 204.683L118.523 202.486L117.643 203.528L120.253 205.725L121.134 204.683Z" fill="white"/>
<path d="M136.418 206.883L133.807 209.08L134.687 210.122L137.299 207.925L136.418 206.883Z" fill="white"/>
<path d="M142.518 203.526L141.637 202.484L139.026 204.681L139.907 205.723L142.518 203.526Z" fill="white"/>
<path d="M133.64 197.941H130.225V199.304H133.64V197.941Z" fill="white"/>
<path d="M140.468 197.941H137.053V199.304H140.468V197.941Z" fill="white"/>
<path d="M126.808 197.941H123.393V199.304H126.808V197.941Z" fill="white"/>
<path d="M123.15 174.36L121.879 173.86L120.628 177.031L121.899 177.531L123.15 174.36Z" fill="white"/>
<path d="M120.656 180.702L119.385 180.202L118.134 183.373L119.405 183.873L120.656 180.702Z" fill="white"/>
<path d="M128.14 161.67L126.869 161.17L125.618 164.341L126.889 164.841L128.14 161.67Z" fill="white"/>
<path d="M125.646 168.013L124.375 167.514L123.124 170.685L124.395 171.184L125.646 168.013Z" fill="white"/>
<path d="M118.152 187.046L116.881 186.547L115.63 189.718L116.901 190.217L118.152 187.046Z" fill="white"/>
<path d="M139.441 177.002L138.182 173.834L136.912 174.336L138.171 177.504L139.441 177.002Z" fill="white"/>
<path d="M133.135 161.163L131.865 161.665L133.124 164.833L134.394 164.331L133.135 161.163Z" fill="white"/>
<path d="M144.478 189.675L143.219 186.507L141.949 187.01L143.208 190.178L144.478 189.675Z" fill="white"/>
<path d="M136.921 170.667L135.662 167.499L134.392 168.001L135.651 171.169L136.921 170.667Z" fill="white"/>
<path d="M140.716 183.843L141.986 183.341L140.728 180.173L139.458 180.675L140.716 183.843Z" fill="white"/>
<path d="M159.936 218.891L158.215 215.947L157.035 216.634L158.756 219.578L159.936 218.891Z" fill="white"/>
<path d="M150.157 204.862L151.879 207.805L153.059 207.118L151.337 204.174L150.157 204.862Z" fill="white"/>
<path d="M170.299 236.54L168.576 233.598L167.396 234.285L169.119 237.228L170.299 236.54Z" fill="white"/>
<path d="M166.829 230.663L165.107 227.719L163.927 228.406L165.648 231.35L166.829 230.663Z" fill="white"/>
<path d="M173.713 242.435L171.992 239.491L170.812 240.178L172.533 243.122L173.713 242.435Z" fill="white"/>
<path d="M162.198 225.467L163.379 224.781L161.661 221.836L160.48 222.522L162.198 225.467Z" fill="white"/>
<path d="M156.495 213.004L154.773 210.06L153.593 210.747L155.314 213.691L156.495 213.004Z" fill="white"/>
<path d="M183.146 246.654L183.439 247.985L186.775 247.253L186.481 245.921L183.146 246.654Z" fill="white"/>
<path d="M189.816 245.194L190.109 246.526L193.445 245.793L193.151 244.462L189.816 245.194Z" fill="white"/>
<path d="M196.494 243.74L196.787 245.071L200.123 244.339L199.829 243.007L196.494 243.74Z" fill="white"/>
<path d="M203.165 242.281L203.459 243.612L206.795 242.88L206.501 241.548L203.165 242.281Z" fill="white"/>
<path d="M209.837 240.823L210.131 242.154L213.466 241.422L213.173 240.091L209.837 240.823Z" fill="white"/>
<path d="M204.176 211.273L206.188 214.028L207.292 213.225L205.28 210.471L204.176 211.273Z" fill="white"/>
<path d="M211.295 218.726L209.283 215.972L208.179 216.775L210.19 219.529L211.295 218.726Z" fill="white"/>
<path d="M212.221 222.292L214.232 225.046L215.337 224.244L213.325 221.489L212.221 222.292Z" fill="white"/>
<path d="M192.102 194.747L194.113 197.501L195.217 196.698L193.206 193.944L192.102 194.747Z" fill="white"/>
<path d="M191.181 191.188L189.17 188.434L188.066 189.237L190.077 191.991L191.181 191.188Z" fill="white"/>
<path d="M199.224 202.205L197.213 199.45L196.109 200.253L198.12 203.007L199.224 202.205Z" fill="white"/>
<path d="M184.055 183.731L186.066 186.486L187.171 185.683L185.159 182.929L184.055 183.731Z" fill="white"/>
<path d="M216.255 227.797L218.268 230.551L219.371 229.748L217.359 226.994L216.255 227.797Z" fill="white"/>
<path d="M201.241 204.959L200.137 205.762L202.147 208.517L203.252 207.714L201.241 204.959Z" fill="white"/>
<path d="M84.7444 225.532L83.3789 225.489L83.2703 228.895L84.6358 228.939L84.7444 225.532Z" fill="white"/>
<path d="M82.8473 242.511L84.2129 242.554L84.3215 239.148L82.956 239.105L82.8473 242.511Z" fill="white"/>
<path d="M84.9671 218.72L83.6016 218.676L83.4929 222.083L84.8585 222.126L84.9671 218.72Z" fill="white"/>
<path d="M84.5276 232.345L83.1621 232.302L83.0535 235.708L84.419 235.751L84.5276 232.345Z" fill="white"/>
<path d="M85.1839 211.907L83.8184 211.864L83.7097 215.27L85.0753 215.313L85.1839 211.907Z" fill="white"/>
<path d="M86.0687 184.66L84.7031 184.617L84.5945 188.023L85.96 188.066L86.0687 184.66Z" fill="white"/>
<path d="M85.846 191.473L84.4805 191.43L84.3719 194.836L85.7374 194.879L85.846 191.473Z" fill="white"/>
<path d="M85.4065 205.094L84.041 205.051L83.9324 208.457L85.2979 208.501L85.4065 205.094Z" fill="white"/>
<path d="M85.6292 198.285L84.2637 198.242L84.1551 201.648L85.5206 201.691L85.6292 198.285Z" fill="white"/>
<path d="M178.392 232.314L177.027 232.244L176.852 235.648L178.217 235.718L178.392 232.314Z" fill="white"/>
<path d="M179.466 211.894L178.102 211.824L177.926 215.227L179.291 215.297L179.466 211.894Z" fill="white"/>
<path d="M178.753 225.509L177.389 225.44L177.213 228.843L178.578 228.913L178.753 225.509Z" fill="white"/>
<path d="M179.107 218.703L177.742 218.633L177.567 222.037L178.931 222.107L179.107 218.703Z" fill="white"/>
<path d="M176.495 242.439L177.859 242.509L178.035 239.105L176.67 239.035L176.495 242.439Z" fill="white"/>
<path d="M179.358 187.986L180.723 188.056L180.898 184.653L179.533 184.583L179.358 187.986Z" fill="white"/>
<path d="M179.827 205.09L178.463 205.02L178.288 208.423L179.652 208.493L179.827 205.09Z" fill="white"/>
<path d="M180.54 191.477L179.176 191.407L179.001 194.811L180.365 194.881L180.54 191.477Z" fill="white"/>
<path d="M180.181 198.283L178.816 198.213L178.641 201.617L180.006 201.687L180.181 198.283Z" fill="white"/>
<path d="M96.694 224.704L97.8711 225.396L99.6052 222.46L98.428 221.768L96.694 224.704Z" fill="white"/>
<path d="M92.6752 234.245L91.498 233.553L89.764 236.489L90.9411 237.181L92.6752 234.245Z" fill="white"/>
<path d="M87.4872 243.03L89.2168 240.091L88.0387 239.401L86.3091 242.339L87.4872 243.03Z" fill="white"/>
<path d="M103.603 212.981L104.781 213.671L106.509 210.731L105.33 210.042L103.603 212.981Z" fill="white"/>
<path d="M103.065 216.584L101.887 215.894L100.159 218.834L101.338 219.523L103.065 216.584Z" fill="white"/>
<path d="M109.981 204.832L108.803 204.143L107.075 207.082L108.254 207.772L109.981 204.832Z" fill="white"/>
<path d="M94.41 231.294L96.1406 228.356L94.9628 227.665L93.2321 230.603L94.41 231.294Z" fill="white"/>
<path d="M46.5102 241.283L49.8438 242.025L50.1413 240.695L46.8077 239.953L46.5102 241.283Z" fill="white"/>
<path d="M66.504 245.735L69.8379 246.476L70.1348 245.145L66.8009 244.404L66.504 245.735Z" fill="white"/>
<path d="M73.1758 247.218L76.5098 247.958L76.8066 246.628L73.4727 245.887L73.1758 247.218Z" fill="white"/>
<path d="M59.8399 244.253L63.1738 244.993L63.4707 243.663L60.1368 242.922L59.8399 244.253Z" fill="white"/>
<path d="M53.1781 242.767L56.5117 243.509L56.8093 242.178L53.4757 241.436L53.1781 242.767Z" fill="white"/>
<path d="M74.4872 190.781L75.5625 191.627L77.6778 188.951L76.6025 188.105L74.4872 190.781Z" fill="white"/>
<path d="M61.7919 206.83L62.8672 207.676L64.9824 205.001L63.9071 204.155L61.7919 206.83Z" fill="white"/>
<path d="M72.3796 193.447L70.2637 196.122L71.3388 196.969L73.4548 194.293L72.3796 193.447Z" fill="white"/>
<path d="M69.2198 199.632L68.1445 198.786L66.0293 201.461L67.1046 202.308L69.2198 199.632Z" fill="white"/>
<path d="M81.9151 183.583L80.8398 182.736L78.7246 185.412L79.7999 186.258L81.9151 183.583Z" fill="white"/>
<path d="M59.6784 209.494L57.5625 212.17L58.6377 213.016L60.7536 210.341L59.6784 209.494Z" fill="white"/>
<path d="M46.9851 225.546L44.8691 228.221L45.9443 229.067L48.0602 226.392L46.9851 225.546Z" fill="white"/>
<path d="M40.6317 233.581L41.707 234.427L43.8223 231.752L42.747 230.905L40.6317 233.581Z" fill="white"/>
<path d="M53.327 217.532L54.4023 218.379L56.5176 215.703L55.4423 214.857L53.327 217.532Z" fill="white"/>
<path d="M49.0907 222.881L50.166 223.727L52.2813 221.051L51.206 220.205L49.0907 222.881Z" fill="white"/>
<path d="M116.787 265.813L113.773 264.209L113.13 265.412L116.144 267.016L116.787 265.813Z" fill="white"/>
<path d="M101.08 258.997L104.094 260.6L104.736 259.397L101.722 257.794L101.08 258.997Z" fill="white"/>
<path d="M95.0502 255.79L98.0645 257.393L98.707 256.19L95.6928 254.587L95.0502 255.79Z" fill="white"/>
<path d="M122.827 269.017L119.812 267.414L119.17 268.617L122.184 270.22L122.827 269.017Z" fill="white"/>
<path d="M107.111 262.201L110.125 263.805L110.768 262.602L107.755 260.998L107.111 262.201Z" fill="white"/>
<path d="M89.0255 252.582L92.0391 254.186L92.6821 252.984L89.6686 251.38L89.0255 252.582Z" fill="white"/>
<path d="M178.439 257.117L177.08 257.26L177.439 260.649L178.798 260.506L178.439 257.117Z" fill="white"/>
<path d="M156.887 258.618L153.873 260.222L154.516 261.425L157.53 259.821L156.887 258.618Z" fill="white"/>
<path d="M179.161 263.893L177.803 264.036L178.162 267.426L179.52 267.282L179.161 263.893Z" fill="white"/>
<path d="M165.922 253.802L166.566 255.004L169.579 253.397L168.934 252.195L165.922 253.802Z" fill="white"/>
<path d="M178.501 270.816L178.861 274.205L180.22 274.061L179.86 270.673L178.501 270.816Z" fill="white"/>
<path d="M162.911 255.418L159.896 257.021L160.539 258.224L163.553 256.621L162.911 255.418Z" fill="white"/>
<path d="M144.827 265.036L141.812 266.639L142.455 267.842L145.469 266.239L144.827 265.036Z" fill="white"/>
<path d="M138.795 268.243L135.781 269.846L136.424 271.049L139.438 269.446L138.795 268.243Z" fill="white"/>
<path d="M150.855 261.825L147.842 263.429L148.485 264.631L151.498 263.027L150.855 261.825Z" fill="white"/>
<path d="M81.4959 258.851L82.8535 259.004L83.2371 255.617L81.8795 255.464L81.4959 258.851Z" fill="white"/>
<path d="M79.9764 272.398L81.334 272.551L81.7176 269.164L80.3599 269.011L79.9764 272.398Z" fill="white"/>
<path d="M80.7361 265.623L82.0938 265.776L82.4773 262.39L81.1197 262.237L80.7361 265.623Z" fill="white"/>
<path d="M79.2146 279.173L80.5723 279.326L80.9558 275.939L79.5982 275.786L79.2146 279.173Z" fill="white"/>
<path d="M119.923 275.081L120.203 276.415L123.546 275.716L123.266 274.382L119.923 275.081Z" fill="white"/>
<path d="M106.556 277.874L106.836 279.208L110.179 278.51L109.899 277.175L106.556 277.874Z" fill="white"/>
<path d="M86.4953 282.061L86.7754 283.395L90.1185 282.696L89.8385 281.362L86.4953 282.061Z" fill="white"/>
<path d="M113.239 276.475L113.52 277.809L116.863 277.111L116.583 275.776L113.239 276.475Z" fill="white"/>
<path d="M99.8703 279.268L100.15 280.602L103.494 279.904L103.213 278.569L99.8703 279.268Z" fill="white"/>
<path d="M93.1789 280.668L93.459 282.002L96.8021 281.303L96.522 279.969L93.1789 280.668Z" fill="white"/>
<path d="M156.623 279.677L159.971 280.354L160.242 279.018L156.895 278.341L156.623 279.677Z" fill="white"/>
<path d="M149.965 278.337L153.312 279.013L153.583 277.677L150.236 277.001L149.965 278.337Z" fill="white"/>
<path d="M143.254 276.966L146.602 277.641L146.872 276.305L143.524 275.63L143.254 276.966Z" fill="white"/>
<path d="M136.537 275.622L139.885 276.299L140.156 274.963L136.809 274.286L136.537 275.622Z" fill="white"/>
<path d="M163.354 281.042L166.701 281.718L166.972 280.382L163.625 279.706L163.354 281.042Z" fill="white"/>
<path d="M170.053 282.396L173.4 283.071L173.671 281.735L170.324 281.06L170.053 282.396Z" fill="white"/>
<path d="M93.2233 107.649L95.5742 105.177L94.5832 104.239L92.2322 106.711L93.2233 107.649Z" fill="white"/>
<path d="M90.8677 110.131L89.877 109.192L87.525 111.664L88.5158 112.603L90.8677 110.131Z" fill="white"/>
<path d="M96.933 101.759L97.9238 102.698L100.276 100.227L99.285 99.288L96.933 101.759Z" fill="white"/>
<path d="M164.642 104.819L166.916 107.362L167.935 106.454L165.662 103.911L164.642 104.819Z" fill="white"/>
<path d="M160.103 99.7201L162.379 102.262L163.398 101.354L161.122 98.812L160.103 99.7201Z" fill="white"/>
<path d="M172.498 111.534L170.223 108.993L169.204 109.901L171.479 112.442L172.498 111.534Z" fill="white"/>
<path d="M113.414 95.5206H109.998V96.8837H113.414V95.5206Z" fill="white"/>
<path d="M140.738 95.5206H137.322V96.8837H140.738V95.5206Z" fill="white"/>
<path d="M127.076 95.5206H123.66V96.8837H127.076V95.5206Z" fill="white"/>
<path d="M133.906 95.5206H130.49V96.8837H133.906V95.5206Z" fill="white"/>
<path d="M120.244 95.5206H116.828V96.8837H120.244V95.5206Z" fill="white"/>
<path d="M147.568 95.5206H144.152V96.8837H147.568V95.5206Z" fill="white"/>
<path d="M169.865 89.6187L170.463 90.8446L173.534 89.354L172.937 88.1281L169.865 89.6187Z" fill="white"/>
<path d="M188.293 80.6752L188.891 81.9011L191.962 80.4105L191.365 79.1845L188.293 80.6752Z" fill="white"/>
<path d="M200.58 74.7107L201.178 75.9366L204.249 74.446L203.652 73.2201L200.58 74.7107Z" fill="white"/>
<path d="M206.725 71.7292L207.322 72.9551L210.394 71.4645L209.796 70.2386L206.725 71.7292Z" fill="white"/>
<path d="M163.721 92.6026L164.318 93.8285L167.39 92.3379L166.792 91.112L163.721 92.6026Z" fill="white"/>
<path d="M185.803 83.4066L185.205 82.1807L182.133 83.6714L182.731 84.8973L185.803 83.4066Z" fill="white"/>
<path d="M194.436 77.6942L195.033 78.9201L198.105 77.4294L197.507 76.2035L194.436 77.6942Z" fill="white"/>
<path d="M219.595 66.9932L222.666 65.5019L222.068 64.2761L218.997 65.7674L219.595 66.9932Z" fill="white"/>
<path d="M212.861 68.7453L213.459 69.9712L216.531 68.4805L215.933 67.2547L212.861 68.7453Z" fill="white"/>
<path d="M179.66 86.3896L179.062 85.1637L175.991 86.6543L176.588 87.8802L179.66 86.3896Z" fill="white"/>
<path d="M223.403 87.9497L222.098 87.5467L221.088 90.8023L222.393 91.2053L223.403 87.9497Z" fill="white"/>
<path d="M220.072 94.0678L219.066 97.3248L220.372 97.7259L221.377 94.469L220.072 94.0678Z" fill="white"/>
<path d="M229.434 68.4074L228.129 68.0044L227.119 71.26L228.424 71.663L229.434 68.4074Z" fill="white"/>
<path d="M224.117 81.035L223.111 84.292L224.417 84.6934L225.423 81.4364L224.117 81.035Z" fill="white"/>
<path d="M215.048 110.363L216.354 110.766L217.363 107.51L216.058 107.107L215.048 110.363Z" fill="white"/>
<path d="M227.424 74.9237L226.119 74.5208L225.11 77.7764L226.415 78.1794L227.424 74.9237Z" fill="white"/>
<path d="M219.381 100.977L218.076 100.574L217.067 103.83L218.372 104.233L219.381 100.977Z" fill="white"/>
<path d="M33.9597 77.9653L35.2754 77.5856L34.3262 74.3119L33.0105 74.6917L33.9597 77.9653Z" fill="white"/>
<path d="M37.7566 91.0608L39.0723 90.681L38.1231 87.4074L36.8074 87.7871L37.7566 91.0608Z" fill="white"/>
<path d="M38.6971 94.3485L39.6445 97.6225L40.9603 97.2434L40.0129 93.9694L38.6971 94.3485Z" fill="white"/>
<path d="M43.4402 110.708L44.7559 110.329L43.8067 107.055L42.491 107.435L43.4402 110.708Z" fill="white"/>
<path d="M40.5918 100.889L41.541 104.162L42.8534 103.784L41.9042 100.51L40.5918 100.889Z" fill="white"/>
<path d="M37.1717 84.1416L36.2246 80.8672L34.9087 81.2462L35.8558 84.5206L37.1717 84.1416Z" fill="white"/>
<path d="M33.3811 71.035L32.4336 67.761L31.1178 68.1401L32.0653 71.4141L33.3811 71.035Z" fill="white"/>
<path d="M63.0904 77.1082L66.1504 78.6223L66.7574 77.401L63.6974 75.8869L63.0904 77.1082Z" fill="white"/>
<path d="M69.8199 78.9222L69.2129 80.1434L72.2729 81.6576L72.8799 80.4363L69.8199 78.9222Z" fill="white"/>
<path d="M50.8551 71.0442L53.9141 72.5604L54.5219 71.3395L51.4629 69.8233L50.8551 71.0442Z" fill="white"/>
<path d="M38.622 64.9822L41.6816 66.497L42.2889 65.2759L39.2293 63.761L38.622 64.9822Z" fill="white"/>
<path d="M56.9801 74.0742L60.0391 75.5904L60.6469 74.3695L57.5879 72.8533L56.9801 74.0742Z" fill="white"/>
<path d="M93.6832 92.2639L96.7422 93.7801L97.35 92.5592L94.2911 91.043L93.6832 92.2639Z" fill="white"/>
<path d="M81.4469 86.2005L84.5059 87.7167L85.1137 86.4958L82.0547 84.9796L81.4469 86.2005Z" fill="white"/>
<path d="M75.3313 83.1707L78.3906 84.6862L78.9982 83.4652L75.9389 81.9497L75.3313 83.1707Z" fill="white"/>
<path d="M44.7399 68.0142L47.7988 69.5304L48.4067 68.3096L45.3477 66.7934L44.7399 68.0142Z" fill="white"/>
<path d="M91.2315 89.5361L88.1719 88.0213L87.5646 89.2424L90.6242 90.7573L91.2315 89.5361Z" fill="white"/>
<path d="M101.849 89.4827L100.867 86.2186L99.5586 86.6105L100.541 89.8746L101.849 89.4827Z" fill="white"/>
<path d="M85.1833 33.9947L83.875 34.3876L84.8594 37.6511L86.1677 37.2582L85.1833 33.9947Z" fill="white"/>
<path d="M94.9958 66.6399L93.6875 67.0328L94.6719 70.2962L95.9801 69.9034L94.9958 66.6399Z" fill="white"/>
<path d="M92.6995 63.7482L94.0078 63.3554L93.0235 60.0919L91.7152 60.4848L92.6995 63.7482Z" fill="white"/>
<path d="M87.8012 47.4341L88.7832 50.6982L90.0918 50.3063L89.1098 47.0422L87.8012 47.4341Z" fill="white"/>
<path d="M88.1177 43.784L87.1367 40.5196L85.828 40.9111L86.809 44.1756L88.1177 43.784Z" fill="white"/>
<path d="M90.7405 57.2201L92.0488 56.8272L91.0645 53.5638L89.7562 53.9566L90.7405 57.2201Z" fill="white"/>
<path d="M98.5823 83.3317L99.8906 82.9388L98.9063 79.6754L97.598 80.0682L98.5823 83.3317Z" fill="white"/>
<path d="M96.6214 76.8055L97.9297 76.4126L96.9453 73.1492L95.637 73.5421L96.6214 76.8055Z" fill="white"/>
<path d="M163.193 79.995L161.879 79.6223L160.945 82.9004L162.259 83.2731L163.193 79.995Z" fill="white"/>
<path d="M165.986 70.165L166.916 66.8859L165.601 66.5145L164.671 69.7937L165.986 70.165Z" fill="white"/>
<path d="M168.789 60.3215L167.475 59.9488L166.541 63.2269L167.855 63.5996L168.789 60.3215Z" fill="white"/>
<path d="M174.381 40.6494L173.066 40.2767L172.133 43.5548L173.447 43.9275L174.381 40.6494Z" fill="white"/>
<path d="M162.799 76.3529L164.113 76.7256L165.047 73.4475L163.733 73.0748L162.799 76.3529Z" fill="white"/>
<path d="M161.332 86.5482L160.018 86.1755L159.084 89.4536L160.398 89.8263L161.332 86.5482Z" fill="white"/>
<path d="M168.395 56.6808L169.709 57.0535L170.643 53.7754L169.329 53.4027L168.395 56.6808Z" fill="white"/>
<path d="M170.256 50.1242L171.57 50.4969L172.504 47.2188L171.19 46.8461L170.256 50.1242Z" fill="white"/>
<path d="M130.791 29.4883H127.375V30.8515H130.791V29.4883Z" fill="white"/>
<path d="M117.13 29.4888H113.715V30.852H117.13V29.4888Z" fill="white"/>
<path d="M158.117 29.4883H154.701V30.8515H158.117V29.4883Z" fill="white"/>
<path d="M144.453 29.4883H141.037V30.8515H144.453V29.4883Z" fill="white"/>
<path d="M151.287 29.4883H147.871V30.8515H151.287V29.4883Z" fill="white"/>
<path d="M137.623 29.4883H134.207V30.8515H137.623V29.4883Z" fill="white"/>
<path d="M103.466 29.4883H100.051V30.8515H103.466V29.4883Z" fill="white"/>
<path d="M96.6363 29.4883H93.2207V30.8515H96.6363V29.4883Z" fill="white"/>
<path d="M164.949 29.4888H161.533V30.852H164.949V29.4888Z" fill="white"/>
<path d="M171.779 29.4888H168.363V30.852H171.779V29.4888Z" fill="white"/>
<path d="M123.96 29.4883H120.545V30.8515H123.96V29.4883Z" fill="white"/>
<path d="M110.298 29.4888H106.883V30.852H110.298V29.4888Z" fill="white"/>
<path d="M53.9835 47.6271L53.3066 46.4429L50.3396 48.1312L51.0164 49.3154L53.9835 47.6271Z" fill="white"/>
<path d="M48.0479 50.9974L47.3711 49.8132L44.404 51.5015L45.0808 52.6857L48.0479 50.9974Z" fill="white"/>
<path d="M42.1104 54.3717L41.4336 53.1875L38.4665 54.8758L39.1433 56.06L42.1104 54.3717Z" fill="white"/>
<path d="M77.7256 34.1369L77.0488 32.9527L74.0817 34.641L74.7586 35.8252L77.7256 34.1369Z" fill="white"/>
<path d="M59.921 44.2528L59.2441 43.0686L56.2771 44.7569L56.9539 45.9411L59.921 44.2528Z" fill="white"/>
<path d="M71.7882 37.5073L71.1113 36.3231L68.1442 38.0114L68.8211 39.1956L71.7882 37.5073Z" fill="white"/>
<path d="M65.8526 40.8815L65.1758 39.6973L62.2087 41.3856L62.8855 42.5698L65.8526 40.8815Z" fill="white"/>
<path d="M222.011 54.1302L219.002 52.5176L218.355 53.7185L221.365 55.3312L222.011 54.1302Z" fill="white"/>
<path d="M197.937 41.2306L194.928 39.618L194.281 40.8189L197.29 42.4316L197.937 41.2306Z" fill="white"/>
<path d="M203.952 44.455L200.943 42.8424L200.297 44.0433L203.306 45.656L203.952 44.455Z" fill="white"/>
<path d="M185.902 34.7789L182.893 33.1662L182.246 34.3672L185.255 35.9798L185.902 34.7789Z" fill="white"/>
<path d="M215.986 50.9068L212.977 49.2941L212.33 50.4951L215.339 52.1077L215.986 50.9068Z" fill="white"/>
<path d="M209.97 47.6785L206.961 46.0658L206.314 47.2668L209.324 48.8794L209.97 47.6785Z" fill="white"/>
<path d="M191.917 38.0062L188.908 36.3936L188.262 37.5945L191.271 39.2072L191.917 38.0062Z" fill="white"/>
</svg>
